<?xml version="1.0" encoding="UTF-8" standalone="no"?>
<svg
   xmlns:dc="http://purl.org/dc/elements/1.1/"
   xmlns:cc="http://creativecommons.org/ns#"
   xmlns:rdf="http://www.w3.org/1999/02/22-rdf-syntax-ns#"
   xmlns:svg="http://www.w3.org/2000/svg"
   xmlns="http://www.w3.org/2000/svg"
   xmlns:sodipodi="http://sodipodi.sourceforge.net/DTD/sodipodi-0.dtd"
   xmlns:inkscape="http://www.inkscape.org/namespaces/inkscape"
   width="24mm"
   height="64mm"
   version="1.1"
   id="svg223"
   sodipodi:docname="Large 7-Segment Display for R6k.svg"
   inkscape:version="0.92.4 (5da689c313, 2019-01-14)"
   inkscape:export-filename="C:\Users\vtk\source\repos\retro6k\retro6k\calc\lcd.png"
   inkscape:export-xdpi="254"
   inkscape:export-ydpi="254">
  <metadata
     id="metadata227">
    <rdf:RDF>
      <cc:Work
         rdf:about="">
        <dc:format>image/svg+xml</dc:format>
        <dc:type
           rdf:resource="http://purl.org/dc/dcmitype/StillImage" />
        <dc:title />
      </cc:Work>
    </rdf:RDF>
  </metadata>
  <sodipodi:namedview
     pagecolor="#000000"
     bordercolor="#666666"
     borderopacity="1"
     objecttolerance="10"
     gridtolerance="10"
     guidetolerance="10"
     inkscape:pageopacity="1"
     inkscape:pageshadow="2"
     inkscape:window-width="1280"
     inkscape:window-height="940"
     id="namedview225"
     showgrid="true"
     units="mm"
     inkscape:pagecheckerboard="false"
     showborder="false"
     inkscape:zoom="0.84096523"
     inkscape:cx="467.607"
     inkscape:cy="227.58049"
     inkscape:window-x="-8"
     inkscape:window-y="-8"
     inkscape:window-maximized="1"
     inkscape:current-layer="g221">
    <inkscape:grid
       type="xygrid"
       id="grid1362"
       spacingx="3.7795276"
       spacingy="3.7795276"
       color="#3fffff"
       opacity="0.1254902"
       empcolor="#3fffff"
       empopacity="0.25098039"
       units="mm"
       empspacing="8" />
  </sodipodi:namedview>
  <desc
     id="desc2">C:\Users\vtk\Documents\Large 7-Segment Display for R6k.dxf - scale = 1.000000, origin = (0.000000, 0.000000), method = manual</desc>
  <defs
     id="defs17">
    <marker
       refY="0"
       refX="0"
       style="overflow:visible"
       id="DistanceX"
       orient="auto">
      <path
         style="stroke:#000000;stroke-width:0.5"
         d="M 3,-3 -3,3 M 0,-5 V 5"
         id="path4"
         inkscape:connector-curvature="0" />
    </marker>
    <pattern
       height="8"
       width="8"
       patternUnits="userSpaceOnUse"
       y="0"
       x="0"
       id="Hatch">
      <path
         linecap="square"
         stroke="#000000"
         stroke-width="0.25"
         d="M8 4 l-4,4"
         id="path7" />
      <path
         linecap="square"
         stroke="#000000"
         stroke-width="0.25"
         d="M6 2 l-4,4"
         id="path9" />
      <path
         linecap="square"
         stroke="#000000"
         stroke-width="0.25"
         d="M4 0 l-4,4"
         id="path11" />
    </pattern>
    <symbol
       id="*Model_Space" />
    <symbol
       id="*Paper_Space" />
    <symbol
       id="*Paper_Space0" />
  </defs>
  <g
     inkscape:label="Cells"
     inkscape:groupmode="layer"
     id="g51"
     transform="translate(0,-880.62995)" />
  <g
     inkscape:label="0"
     inkscape:groupmode="layer"
     id="g53"
     transform="translate(0,-880.62995)" />
  <g
     inkscape:label="Ideal"
     inkscape:groupmode="layer"
     id="g221"
     transform="translate(0,-880.62995)">
    <path
       inkscape:connector-curvature="0"
       id="path1441"
       style="fill:#ffffff;fill-opacity:1;stroke:none;stroke-width:0.37795275;stroke-linecap:round;stroke-miterlimit:4;stroke-dasharray:none;stroke-opacity:1"
       d="m 154.99491,973.58414 -6.74354,-13.48706 4.96054,-21.49567 c 4.38995,0.50399 8.69371,1.36491 12.83522,2.56752 0.8378,1.81305 1.0484,3.75592 0.61207,5.64667 l -4.36099,18.89764 c -0.7626,3.30458 -3.43663,6.18644 -7.3033,7.8709 z m 10.85291,122.36596 5.6693,-22.6771 c 0.41459,-1.6584 0.54492,-3.375 0.38546,-5.077 -4.23251,-2.2747 -8.76288,-3.9451 -13.45898,-4.9625 l -7.23342,28.9336 3.69232,14.7693 c 5.39189,-1.3694 9.5961,-5.5893 10.94532,-10.9863 z M 91.189821,960 92.934219,948.66142 H 108.15263 L 106.40824,960 Z m 15.581829,128.5039 3.77953,-15.1181 H 94.967789 l -3.779527,15.1181 z m -8.404289,-175.15791 -0.19995,1.29968 h 55.458449 l 2.6166,-11.33858 h -42.85663 c -7.67906,0 -14.138258,4.31757 -15.018469,10.0389 z m 22.577519,103.34691 c -6.9372,0 -12.98419,4.7213 -14.66672,11.4514 l -0.91667,3.6667 h 57.04187 l 3.77953,-15.1181 z" />
    <path
       id="path1461"
       style="fill:#ffffff;fill-opacity:1;stroke:none;stroke-width:0.37795275;stroke-linecap:round;stroke-miterlimit:4;stroke-dasharray:none;stroke-opacity:1"
       d="m 190.28801,1054.9396 c 3.36852,-2.7369 7.57648,-4.2309 11.91671,-4.2309 h 4.72441 l 3.77953,-15.1181 h -15.58339 z m 59.78135,4.6255 10.60519,-42.4208 c 8.10021,2.0251 13.0251,10.2332 11.00004,18.3334 l -5.66929,22.6772 c -0.54823,2.1929 -1.58124,4.235 -3.023,5.976 -4.09814,-2.052 -8.43582,-3.5857 -12.91294,-4.5658 z m -5.28922,-124.68851 7.24694,-31.4034 c 8.22719,1.06795 13.74231,6.93579 12.31837,13.10618 l -4.36099,18.89763 c -0.18521,0.80257 -0.48518,1.58783 -0.89472,2.3422 -0.16699,-0.0655 -0.33875,-0.12383 -0.51446,-0.17485 -4.45194,-1.29276 -9.0772,-2.22074 -13.79514,-2.76776 z M 203.51302,918.4252 h -15.21841 l -2.34204,15.22323 c 3.70209,-2.50077 8.50788,-3.88465 13.49019,-3.88465 h 2.32586 z m -22.0957,45.35433 c 1e-5,6.26213 6.76861,11.33858 15.11811,11.33858 h 41.5748 c 0.96489,0 1.92755,-0.0693 2.87483,-0.20689 l -5.56585,-11.13169 z m 15.11811,143.62207 c -8.34949,0 -15.1181,-6.7686 -15.11811,-15.1181 h 56.63476 l 3.77952,15.1181 z"
       inkscape:connector-curvature="0" />
    <path
       d="m 336.41223,973.58414 -6.74354,-13.48706 4.96054,-21.49567 c 4.38995,0.50399 8.69371,1.36491 12.83522,2.56752 0.8378,1.81305 1.0484,3.75592 0.61207,5.64667 l -4.36099,18.89764 c -0.7626,3.30458 -3.43663,6.18644 -7.3033,7.8709 z m 10.85291,122.36596 5.6693,-22.6771 c 0.41459,-1.6584 0.54492,-3.375 0.38546,-5.077 -4.23251,-2.2747 -8.76288,-3.9451 -13.45898,-4.9625 l -7.23342,28.9336 3.69232,14.7693 c 5.39189,-1.3694 9.5961,-5.5893 10.94532,-10.9863 z M 272.60714,960 l 1.7444,-11.33858 h 15.21841 L 287.82556,960 Z m 15.58183,128.5039 3.77953,-15.1181 h -15.58339 l -3.77953,15.1181 z m -8.40429,-175.15791 -0.19995,1.29968 h 55.45845 l 2.6166,-11.33858 h -42.85663 c -7.67906,0 -14.13826,4.31757 -15.01847,10.0389 z m 22.57752,103.34691 c -6.9372,0 -12.98419,4.7213 -14.66672,11.4514 l -0.91667,3.6667 h 57.04187 l 3.77953,-15.1181 z"
       style="fill:#ffffff;fill-opacity:1;stroke:none;stroke-width:0.37795275;stroke-linecap:round;stroke-miterlimit:4;stroke-dasharray:none;stroke-opacity:1"
       id="path1465"
       inkscape:connector-curvature="0" />
    <path
       d="m 280.99667,1054.9396 c 3.36852,-2.7369 7.57648,-4.2309 11.91671,-4.2309 h 4.72441 l 3.77953,-15.1181 h -15.58339 z m 59.78135,4.6255 10.60519,-42.4208 c 8.10021,2.0251 13.02509,10.2332 11.00004,18.3334 l -5.66929,22.6772 c -0.54823,2.1929 -1.58124,4.235 -3.023,5.976 -4.09814,-2.052 -8.43582,-3.5857 -12.91294,-4.5658 z m -5.28922,-124.68851 7.24694,-31.4034 c 8.22719,1.06795 13.74231,6.93579 12.31837,13.10618 l -4.36099,18.89763 c -0.18521,0.80257 -0.48518,1.58783 -0.89472,2.3422 -0.16699,-0.0655 -0.33875,-0.12383 -0.51446,-0.17485 -4.45194,-1.29276 -9.0772,-2.22074 -13.79514,-2.76776 z M 294.22168,918.4252 h -15.21841 l -2.34204,15.22323 c 3.70209,-2.50077 8.50788,-3.88465 13.49019,-3.88465 h 2.32586 z m -22.0957,45.35433 c 10e-6,6.26213 6.76861,11.33858 15.11811,11.33858 h 41.5748 c 0.96489,0 1.92755,-0.0693 2.87483,-0.20689 l -5.56585,-11.13169 z m 15.11811,143.62207 c -8.34949,0 -15.1181,-6.7686 -15.11811,-15.1181 h 56.63475 l 3.77953,15.1181 z"
       style="fill:#ffffff;fill-opacity:1;stroke:none;stroke-width:0.37795275;stroke-linecap:round;stroke-miterlimit:4;stroke-dasharray:none;stroke-opacity:1"
       id="path1467"
       inkscape:connector-curvature="0" />
    <path
       id="path1487"
       style="fill:#ffffff;fill-opacity:1;stroke:none;stroke-width:0.37795275;stroke-linecap:round;stroke-miterlimit:4;stroke-dasharray:none;stroke-opacity:1"
       d="m 380.86008,933.54331 c -7.67906,0 -14.13826,4.31757 -15.01846,10.03891 l -0.19995,1.29967 h 53.13259 l 2.61659,-11.33858 z m 2.76197,120.94489 h 45.35433 l -3.77953,15.1181 h -57.15819 l 0.91667,-3.6667 c 1.68253,-6.7301 7.72951,-11.4514 14.66672,-11.4514 z m -20.7874,49.1338 c 0.83028,1.1071 1.77965,2.1196 2.83103,3.0193 1.96069,4.4874 0.81899,9.7264 -2.83103,12.9911 z M 453.5433,973.77922 c -1.8476,-1.57124 -3.23962,-3.41333 -4.08775,-5.40942 -3.41384,-1.08099 -7.30829,-1.08099 -10.72213,0 -1.36383,3.20981 -4.11806,5.98602 -7.82553,7.88798 -0.98167,8.80494 13.98106,13.67204 22.63541,7.36289 z m -90.70865,9.84145 c 2.67834,-1.95255 4.04158,-4.63794 3.73778,-7.36289 -1.37798,-0.70691 -2.63352,-1.53947 -3.73778,-2.47856 z m 90.70866,136.01173 c -9.07724,8.119 -22.82527,-1.8315 -17.94915,-12.9911 1.61401,-1.3812 2.98359,-3.0247 4.05113,-4.8613 3.83119,-2.5833 8.84673,-2.5833 12.67793,0 0.37042,0.6373 0.77781,1.2523 1.22009,1.842 z"
       inkscape:connector-curvature="0" />
    <path
       d="m 517.82956,973.58414 -6.74354,-13.48706 4.96054,-21.49567 c 4.38995,0.50399 8.69371,1.36491 12.83522,2.56752 0.8378,1.81305 1.0484,3.75592 0.61207,5.64667 l -4.36099,18.89764 c -0.7626,3.30458 -3.43663,6.18644 -7.3033,7.8709 z m 10.85291,122.36596 5.6693,-22.6771 c 0.41459,-1.6584 0.54492,-3.375 0.38546,-5.077 -4.23251,-2.2747 -8.76288,-3.9451 -13.45898,-4.9625 l -7.23342,28.9336 3.69232,14.7693 c 5.39189,-1.3694 9.5961,-5.5893 10.94532,-10.9863 z M 454.02447,960 l 1.74439,-11.33858 h 15.21842 L 469.24289,960 Z m 15.58183,128.5039 3.77953,-15.1181 h -15.5834 l -3.77952,15.1181 z m -8.40429,-175.15791 -0.19995,1.29968 h 55.45845 l 2.6166,-11.33858 h -42.85663 c -7.67906,0 -14.13826,4.31757 -15.01847,10.0389 z m 22.57752,103.34691 c -6.9372,0 -12.98419,4.7213 -14.66672,11.4514 l -0.91667,3.6667 h 57.04187 l 3.77953,-15.1181 z"
       style="fill:#ffffff;fill-opacity:1;stroke:none;stroke-width:0.37795275;stroke-linecap:round;stroke-miterlimit:4;stroke-dasharray:none;stroke-opacity:1"
       id="path1489"
       inkscape:connector-curvature="0" />
    <path
       d="m 471.56875,933.54331 c -7.67906,0 -14.13827,4.31757 -15.01847,10.03891 l -0.19995,1.29967 h 53.13259 l 2.6166,-11.33858 z m 2.76196,120.94489 h 45.35433 l -3.77952,15.1181 h -57.1582 l 0.91667,-3.6667 c 1.68253,-6.7301 7.72952,-11.4514 14.66672,-11.4514 z m -20.7874,49.1338 c 0.83028,1.1071 1.77965,2.1196 2.83103,3.0193 1.9607,4.4874 0.81899,9.7264 -2.83103,12.9911 z m 90.70866,-129.84278 c -1.84761,-1.57124 -3.23963,-3.41333 -4.08775,-5.40942 -3.41384,-1.08099 -7.30829,-1.08099 -10.72213,0 -1.36384,3.20981 -4.11807,5.98602 -7.82554,7.88798 -0.98167,8.80494 13.98107,13.67204 22.63542,7.36289 z m -90.70866,9.84145 c 2.67834,-1.95255 4.04158,-4.63794 3.73778,-7.36289 -1.37798,-0.70691 -2.63352,-1.53947 -3.73778,-2.47856 z m 90.70866,136.01173 c -9.07723,8.119 -22.82526,-1.8315 -17.94914,-12.9911 1.61401,-1.3812 2.98358,-3.0247 4.05112,-4.8613 3.8312,-2.5833 8.84674,-2.5833 12.67793,0 0.37043,0.6373 0.77782,1.2523 1.22009,1.842 z"
       style="fill:#ffffff;fill-opacity:1;stroke:none;stroke-width:0.37795275;stroke-linecap:round;stroke-miterlimit:4;stroke-dasharray:none;stroke-opacity:1"
       id="path1493"
       inkscape:connector-curvature="0" />
    <path
       inkscape:connector-curvature="0"
       d="m 553.12266,1054.9396 c 3.36852,-2.7369 7.57648,-4.2309 11.91671,-4.2309 h 4.72441 l 3.77953,-15.1181 h -15.58339 z m 59.78135,4.6255 10.60519,-42.4208 c 8.10021,2.0251 13.0251,10.2332 11.00004,18.3334 l -5.66929,22.6772 c -0.54823,2.1929 -1.58124,4.235 -3.023,5.976 -4.09814,-2.052 -8.43582,-3.5857 -12.91294,-4.5658 z m -5.28922,-124.68851 7.24694,-31.4034 c 8.22719,1.06795 13.74231,6.93579 12.31837,13.10618 l -4.36099,18.89763 c -0.18521,0.80257 -0.48518,1.58783 -0.89472,2.3422 -0.16699,-0.0655 -0.33875,-0.12383 -0.51446,-0.17485 -4.45194,-1.29276 -9.0772,-2.22074 -13.79514,-2.76776 z M 566.34767,918.4252 h -15.21841 l -2.34204,15.22323 c 3.70209,-2.50077 8.50788,-3.88465 13.49019,-3.88465 h 2.32586 z m -22.0957,45.35433 c 10e-6,6.26213 6.76861,11.33858 15.11811,11.33858 h 41.5748 c 0.96489,0 1.92755,-0.0693 2.87483,-0.20689 l -5.56585,-11.13169 z m 15.11811,143.62207 c -8.34949,0 -15.1181,-6.7686 -15.11811,-15.1181 h 56.63476 l 3.77952,15.1181 z"
       style="fill:#ffffff;fill-opacity:1;stroke:none;stroke-width:0.37795275;stroke-linecap:round;stroke-miterlimit:4;stroke-dasharray:none;stroke-opacity:1"
       id="path1509" />
    <path
       inkscape:connector-curvature="0"
       d="m 562.27741,933.54331 c -7.67906,0 -14.13826,4.31757 -15.01846,10.03891 l -0.19995,1.29967 h 53.13259 l 2.61659,-11.33858 z m 2.76196,120.94489 h 45.35433 l -3.77952,15.1181 h -57.1582 l 0.91667,-3.6667 c 1.68254,-6.7301 7.72952,-11.4514 14.66672,-11.4514 z m -20.7874,49.1338 c 0.83029,1.1071 1.77966,2.1196 2.83104,3.0193 1.96069,4.4874 0.81899,9.7264 -2.83104,12.9911 z m 90.70866,-129.84278 c -1.8476,-1.57124 -3.23963,-3.41333 -4.08775,-5.40942 -3.41384,-1.08099 -7.30829,-1.08099 -10.72213,0 -1.36384,3.20981 -4.11807,5.98602 -7.82554,7.88798 -0.98167,8.80494 13.98107,13.67204 22.63542,7.36289 z m -90.70866,9.84145 c 2.67835,-1.95255 4.04159,-4.63794 3.73778,-7.36289 -1.37797,-0.70691 -2.63351,-1.53947 -3.73778,-2.47856 z m 90.70866,136.01173 c -9.07723,8.119 -22.82526,-1.8315 -17.94914,-12.9911 1.61401,-1.3812 2.98358,-3.0247 4.05112,-4.8613 3.8312,-2.5833 8.84674,-2.5833 12.67793,0 0.37043,0.6373 0.77782,1.2523 1.22009,1.842 z"
       style="fill:#ffffff;fill-opacity:1;stroke:none;stroke-width:0.37795275;stroke-linecap:round;stroke-miterlimit:4;stroke-dasharray:none;stroke-opacity:1"
       id="path1511" />
    <path
       inkscape:connector-curvature="0"
       id="path1513"
       style="fill:#ffffff;fill-opacity:1;stroke:none;stroke-width:0.37795275;stroke-linecap:round;stroke-miterlimit:4;stroke-dasharray:none;stroke-opacity:1"
       d="m 699.24688,973.58414 -6.74354,-13.48706 4.96054,-21.49567 c 4.38995,0.50399 8.69371,1.36491 12.83522,2.56752 0.8378,1.81305 1.0484,3.75592 0.61207,5.64667 l -4.36099,18.89764 c -0.7626,3.30458 -3.43663,6.18644 -7.3033,7.8709 z m 10.85291,122.36596 5.6693,-22.6771 c 0.41459,-1.6584 0.54492,-3.375 0.38546,-5.077 -4.23251,-2.2747 -8.76288,-3.9451 -13.45898,-4.9625 l -7.23342,28.9336 3.69232,14.7693 c 5.39189,-1.3694 9.5961,-5.5893 10.94532,-10.9863 z M 635.44179,960 l 1.7444,-11.33858 H 652.4046 L 650.66021,960 Z m 15.58183,128.5039 3.77953,-15.1181 h -15.58339 l -3.77953,15.1181 z m -8.40429,-175.15791 -0.19995,1.29968 h 55.45845 l 2.6166,-11.33858 H 657.6378 c -7.67906,0 -14.13826,4.31757 -15.01847,10.0389 z m 22.57752,103.34691 c -6.9372,0 -12.98419,4.7213 -14.66672,11.4514 l -0.91667,3.6667 h 57.04187 l 3.77953,-15.1181 z" />
    <path
       inkscape:connector-curvature="0"
       id="path1515"
       style="fill:#ffffff;fill-opacity:1;stroke:none;stroke-width:0.37795275;stroke-linecap:round;stroke-miterlimit:4;stroke-dasharray:none;stroke-opacity:1"
       d="m 643.83132,1054.9396 c 3.36852,-2.7369 7.57648,-4.2309 11.91671,-4.2309 h 4.72441 l 3.77953,-15.1181 h -15.58339 z m 59.78135,4.6255 10.60519,-42.4208 c 8.10021,2.0251 13.02509,10.2332 11.00004,18.3334 l -5.66929,22.6772 c -0.54823,2.1929 -1.58124,4.235 -3.023,5.976 -4.09814,-2.052 -8.43582,-3.5857 -12.91294,-4.5658 z m -5.28922,-124.68851 7.24694,-31.4034 c 8.22719,1.06795 13.74231,6.93579 12.31837,13.10618 l -4.36099,18.89763 c -0.18521,0.80257 -0.48518,1.58783 -0.89472,2.3422 -0.16699,-0.0655 -0.33875,-0.12383 -0.51446,-0.17485 -4.45194,-1.29276 -9.0772,-2.22074 -13.79514,-2.76776 z M 657.05633,918.4252 h -15.21841 l -2.34204,15.22323 c 3.70209,-2.50077 8.50788,-3.88465 13.49019,-3.88465 h 2.32586 z m -22.0957,45.35433 c 10e-6,6.26213 6.76861,11.33858 15.11811,11.33858 h 41.5748 c 0.96489,0 1.92755,-0.0693 2.87483,-0.20689 l -5.56585,-11.13169 z m 15.11811,143.62207 c -8.34949,0 -15.1181,-6.7686 -15.11811,-15.1181 h 56.63475 l 3.77953,15.1181 z" />
    <path
       inkscape:connector-curvature="0"
       id="path1517"
       style="fill:#ffffff;fill-opacity:1;stroke:none;stroke-width:0.37795275;stroke-linecap:round;stroke-miterlimit:4;stroke-dasharray:none;stroke-opacity:1"
       d="m 652.98607,933.54331 c -7.67906,0 -14.13826,4.31757 -15.01846,10.03891 l -0.19995,1.29967 h 53.13258 l 2.6166,-11.33858 z m 2.76196,120.94489 h 45.35433 l -3.77952,15.1181 h -57.1582 l 0.91667,-3.6667 c 1.68254,-6.7301 7.72952,-11.4514 14.66672,-11.4514 z m -20.7874,49.1338 c 0.83029,1.1071 1.77966,2.1196 2.83104,3.0193 1.96069,4.4874 0.81899,9.7264 -2.83104,12.9911 z m 90.70866,-129.84278 c -1.84761,-1.57124 -3.23963,-3.41333 -4.08775,-5.40942 -3.41384,-1.08099 -7.30829,-1.08099 -10.72213,0 -1.36384,3.20981 -4.11807,5.98602 -7.82554,7.88798 -0.98167,8.80494 13.98107,13.67204 22.63542,7.36289 z m -90.70866,9.84145 c 2.67835,-1.95255 4.04159,-4.63794 3.73778,-7.36289 -1.37797,-0.70691 -2.63351,-1.53947 -3.73778,-2.47856 z m 90.70866,136.01173 c -9.07723,8.119 -22.82526,-1.8315 -17.94914,-12.9911 1.61401,-1.3812 2.98358,-3.0247 4.05112,-4.8613 3.8312,-2.5833 8.84674,-2.5833 12.67793,0 0.37043,0.6373 0.77782,1.2523 1.22009,1.842 z" />
    <path
       id="path1388"
       style="fill:#550000;stroke:none;stroke-width:0.37795275;stroke-linecap:round;stroke-miterlimit:4;stroke-dasharray:none;stroke-opacity:1;fill-opacity:1"
       d="m 64.286244,973.58414 -6.743535,-13.48706 4.960539,-21.49567 c 4.389952,0.50399 8.693708,1.36491 12.835217,2.56752 0.837803,1.81305 1.048402,3.75592 0.612077,5.64667 l -4.360993,18.89764 c -0.7626,3.30458 -3.436635,6.18644 -7.303305,7.8709 z m 10.852918,122.36596 5.669292,-22.6771 c 0.414593,-1.6584 0.544928,-3.375 0.385463,-5.077 -4.232507,-2.2747 -8.76288,-3.9451 -13.458979,-4.9625 l -7.233417,28.9336 3.692314,14.7693 c 5.391893,-1.3694 9.596103,-5.5893 10.945327,-10.9863 z M 0.48115999,960 2.2255573,948.66142 H 17.443973 L 15.699576,960 Z M 16.062992,1088.5039 19.84252,1073.3858 H 4.259128 l -3.779527,15.1181 z M 7.6586998,913.34599 7.4587491,914.64567 H 62.917202 l 2.616596,-11.33858 H 22.677165 c -7.679059,0 -14.1382545,4.31757 -15.0184652,10.0389 z M 30.23622,1016.6929 c -6.937203,0 -12.984189,4.7213 -14.666721,11.4514 l -0.91667,3.6667 h 57.041874 l 3.779528,-15.1181 z" />
    <path
       id="path1368"
       style="fill:#550000;stroke:none;stroke-width:0.37795275;stroke-linecap:round;stroke-miterlimit:4;stroke-dasharray:none;stroke-opacity:1;fill-opacity:1"
       d="m 8.870691,1054.9396 c 3.36852,-2.7369 7.576478,-4.2309 11.916711,-4.2309 h 4.724409 l 3.779528,-15.1181 H 13.707947 Z m 59.781344,4.6255 10.605196,-42.4208 c 8.100206,2.0251 13.025092,10.2332 11.000041,18.3334 l -5.669291,22.6772 c -0.548235,2.1929 -1.581245,4.235 -3.023003,5.976 -4.098139,-2.052 -8.435817,-3.5857 -12.912943,-4.5658 z m -5.289215,-124.68851 7.246938,-31.4034 c 8.227188,1.06795 13.742312,6.93579 12.318373,13.10618 L 78.567138,935.477 c -0.185207,0.80257 -0.485178,1.58783 -0.894719,2.3422 -0.166992,-0.0655 -0.338748,-0.12383 -0.514457,-0.17485 -4.451948,-1.29276 -9.077204,-2.22074 -13.795142,-2.76776 z M 22.095699,918.4252 H 6.8772838 l -2.3420359,15.22323 c 3.7020903,-2.50077 8.5078771,-3.88465 13.4901901,-3.88465 h 2.325864 z M 0,963.77953 c 2.2091384e-6,6.26213 6.76861,11.33858 15.11811,11.33858 h 41.574802 c 0.964882,0 1.927547,-0.0693 2.874823,-0.20689 L 54.001887,963.77953 Z M 15.11811,1107.4016 C 6.7686123,1107.4016 5.5228451e-6,1100.633 0,1092.2835 h 56.634753 l 3.779528,15.1181 z" />
    <path
       id="path219"
       style="fill:#550000;stroke:none;stroke-width:0.37795275;stroke-linecap:round;stroke-miterlimit:4;stroke-dasharray:none;stroke-opacity:1;fill-opacity:1"
       d="m 18.025438,933.54331 c -7.679063,0 -14.1382603,4.31757 -15.0184647,10.03891 l -0.1999494,1.29967 H 55.939613 l 2.616596,-11.33858 z m 2.761964,120.94489 h 45.35433 l -3.779527,15.1181 H 5.20401 l 0.91667,-3.6667 c 1.6825326,-6.7301 7.729519,-11.4514 14.666722,-11.4514 z M 0,1103.622 c 0.83028557,1.1071 1.7796569,2.1196 2.831036,3.0193 1.9606928,4.4874 0.8189885,9.7264 -2.831036,12.9911 z M 90.708659,973.77922 c -1.847606,-1.57124 -3.239627,-3.41333 -4.087754,-5.40942 -3.413837,-1.08099 -7.308291,-1.08099 -10.722128,0 -1.363836,3.20981 -4.118067,5.98602 -7.825535,7.88798 -0.981671,8.80494 13.981062,13.67204 22.635417,7.36289 z M 0,983.62067 c 2.6783452,-1.95255 4.0415863,-4.63794 3.7377799,-7.36289 C 2.3598071,975.55087 1.1042657,974.71831 0,973.77922 Z m 90.708661,136.01173 c -9.077234,8.119 -22.825267,-1.8315 -17.949146,-12.9911 1.614013,-1.3812 2.983585,-3.0247 4.051126,-4.8613 3.831193,-2.5833 8.846738,-2.5833 12.677931,0 0.370424,0.6373 0.777817,1.2523 1.220089,1.842 z" />
    <path
       d="m 99.579352,1054.9396 c 3.368518,-2.7369 7.576478,-4.2309 11.916708,-4.2309 h 4.72441 L 120,1035.5906 h -15.58339 z m 59.781348,4.6255 10.60519,-42.4208 c 8.10021,2.0251 13.02509,10.2332 11.00004,18.3334 l -5.66929,22.6772 c -0.54823,2.1929 -1.58124,4.235 -3.023,5.976 -4.09814,-2.052 -8.43582,-3.5857 -12.91294,-4.5658 z m -5.28922,-124.68851 7.24694,-31.4034 c 8.22719,1.06795 13.74231,6.93579 12.31837,13.10618 L 169.2758,935.477 c -0.18521,0.80257 -0.48518,1.58783 -0.89472,2.3422 -0.16699,-0.0655 -0.33875,-0.12383 -0.51446,-0.17485 -4.45194,-1.29276 -9.0772,-2.22074 -13.79514,-2.76776 z M 112.80436,918.4252 H 97.585945 l -2.342036,15.22323 c 3.702091,-2.50077 8.507881,-3.88465 13.490191,-3.88465 h 2.32586 z m -22.095699,45.35433 c 3e-6,6.26213 6.76861,11.33858 15.118109,11.33858 h 41.5748 c 0.96489,0 1.92755,-0.0693 2.87483,-0.20689 l -5.56585,-11.13169 z m 15.118109,143.62207 c -8.349496,0 -15.118103,-6.7686 -15.118109,-15.1181 h 56.634749 l 3.77953,15.1181 z"
       style="fill:#550000;fill-opacity:1;stroke:none;stroke-width:0.37795275;stroke-linecap:round;stroke-miterlimit:4;stroke-dasharray:none;stroke-opacity:1"
       id="path1431"
       inkscape:connector-curvature="0" />
    <path
       d="m 108.7341,933.54331 c -7.67906,0 -14.138261,4.31757 -15.018465,10.03891 l -0.19995,1.29967 h 53.132585 l 2.6166,-11.33858 z m 2.76196,120.94489 h 45.35433 l -3.77952,15.1181 H 95.912671 l 0.91667,-3.6667 c 1.682533,-6.7301 7.729519,-11.4514 14.666719,-11.4514 z m -20.787399,49.1338 c 0.830286,1.1071 1.779657,2.1196 2.831036,3.0193 1.960693,4.4874 0.818989,9.7264 -2.831036,12.9911 z M 181.41732,973.77922 c -1.84761,-1.57124 -3.23963,-3.41333 -4.08775,-5.40942 -3.41384,-1.08099 -7.30829,-1.08099 -10.72213,0 -1.36384,3.20981 -4.11807,5.98602 -7.82554,7.88798 -0.98167,8.80494 13.98107,13.67204 22.63542,7.36289 z m -90.708659,9.84145 c 2.678346,-1.95255 4.041587,-4.63794 3.73778,-7.36289 -1.377972,-0.70691 -2.633514,-1.53947 -3.73778,-2.47856 z m 90.708659,136.01173 c -9.07723,8.119 -22.82526,-1.8315 -17.94914,-12.9911 1.61401,-1.3812 2.98358,-3.0247 4.05112,-4.8613 3.8312,-2.5833 8.84674,-2.5833 12.67793,0 0.37043,0.6373 0.77782,1.2523 1.22009,1.842 z"
       style="fill:#550000;fill-opacity:1;stroke:none;stroke-width:0.37795275;stroke-linecap:round;stroke-miterlimit:4;stroke-dasharray:none;stroke-opacity:1"
       id="path1433"
       inkscape:connector-curvature="0" />
    <path
       d="m 64.286244,973.58414 -6.743535,-13.48706 4.960539,-21.49567 c 4.389952,0.50399 8.693708,1.36491 12.835217,2.56752 0.837803,1.81305 1.048402,3.75592 0.612077,5.64667 l -4.360993,18.89764 c -0.7626,3.30458 -3.436635,6.18644 -7.303305,7.8709 z m 10.852918,122.36596 5.669292,-22.6771 c 0.414593,-1.6584 0.544928,-3.375 0.385463,-5.077 -4.232507,-2.2747 -8.76288,-3.9451 -13.458979,-4.9625 l -7.233417,28.9336 3.692314,14.7693 c 5.391893,-1.3694 9.596103,-5.5893 10.945327,-10.9863 z M 0.48115999,960 2.2255573,948.66142 H 17.443973 L 15.699576,960 Z M 16.062992,1088.5039 19.84252,1073.3858 H 4.259128 l -3.779527,15.1181 z M 7.6586998,913.34599 7.4587491,914.64567 H 62.917202 l 2.616596,-11.33858 H 22.677165 c -7.679059,0 -14.1382545,4.31757 -15.0184652,10.0389 z M 30.23622,1016.6929 c -6.937203,0 -12.984189,4.7213 -14.666721,11.4514 l -0.91667,3.6667 h 57.041874 l 3.779528,-15.1181 z"
       style="fill:#550000;stroke:none;stroke-width:0.37795275;stroke-linecap:round;stroke-miterlimit:4;stroke-dasharray:none;stroke-opacity:1;fill-opacity:1"
       id="path1435" />
    <path
       d="m 8.870691,1054.9396 c 3.36852,-2.7369 7.576478,-4.2309 11.916711,-4.2309 h 4.724409 l 3.779528,-15.1181 H 13.707947 Z m 59.781344,4.6255 10.605196,-42.4208 c 8.100206,2.0251 13.025092,10.2332 11.000041,18.3334 l -5.669291,22.6772 c -0.548235,2.1929 -1.581245,4.235 -3.023003,5.976 -4.098139,-2.052 -8.435817,-3.5857 -12.912943,-4.5658 z m -5.289215,-124.68851 7.246938,-31.4034 c 8.227188,1.06795 13.742312,6.93579 12.318373,13.10618 L 78.567138,935.477 c -0.185207,0.80257 -0.485178,1.58783 -0.894719,2.3422 -0.166992,-0.0655 -0.338748,-0.12383 -0.514457,-0.17485 -4.451948,-1.29276 -9.077204,-2.22074 -13.795142,-2.76776 z M 22.095699,918.4252 H 6.8772838 l -2.3420359,15.22323 c 3.7020903,-2.50077 8.5078771,-3.88465 13.4901901,-3.88465 h 2.325864 z M 0,963.77953 c 2.2091384e-6,6.26213 6.76861,11.33858 15.11811,11.33858 h 41.574802 c 0.964882,0 1.927547,-0.0693 2.874823,-0.20689 L 54.001887,963.77953 Z M 15.11811,1107.4016 C 6.7686123,1107.4016 5.5228451e-6,1100.633 0,1092.2835 h 56.634753 l 3.779528,15.1181 z"
       style="fill:#550000;stroke:none;stroke-width:0.37795275;stroke-linecap:round;stroke-miterlimit:4;stroke-dasharray:none;stroke-opacity:1;fill-opacity:1"
       id="path1437" />
    <path
       d="m 18.025438,933.54331 c -7.679063,0 -14.1382603,4.31757 -15.0184647,10.03891 l -0.1999494,1.29967 H 55.939613 l 2.616596,-11.33858 z m 2.761964,120.94489 h 45.35433 l -3.779527,15.1181 H 5.20401 l 0.91667,-3.6667 c 1.6825326,-6.7301 7.729519,-11.4514 14.666722,-11.4514 z M 0,1103.622 c 0.83028557,1.1071 1.7796569,2.1196 2.831036,3.0193 1.9606928,4.4874 0.8189885,9.7264 -2.831036,12.9911 z M 90.708659,973.77922 c -1.847606,-1.57124 -3.239627,-3.41333 -4.087754,-5.40942 -3.413837,-1.08099 -7.308291,-1.08099 -10.722128,0 -1.363836,3.20981 -4.118067,5.98602 -7.825535,7.88798 -0.981671,8.80494 13.981062,13.67204 22.635417,7.36289 z M 0,983.62067 c 2.6783452,-1.95255 4.0415863,-4.63794 3.7377799,-7.36289 C 2.3598071,975.55087 1.1042657,974.71831 0,973.77922 Z m 90.708661,136.01173 c -9.077234,8.119 -22.825267,-1.8315 -17.949146,-12.9911 1.614013,-1.3812 2.983585,-3.0247 4.051126,-4.8613 3.831193,-2.5833 8.846738,-2.5833 12.677931,0 0.370424,0.6373 0.777817,1.2523 1.220089,1.842 z"
       style="fill:#550000;stroke:none;stroke-width:0.37795275;stroke-linecap:round;stroke-miterlimit:4;stroke-dasharray:none;stroke-opacity:1;fill-opacity:1"
       id="path1439" />
    <path
       inkscape:connector-curvature="0"
       id="path1443"
       style="fill:#550000;fill-opacity:1;stroke:none;stroke-width:0.37795275;stroke-linecap:round;stroke-miterlimit:4;stroke-dasharray:none;stroke-opacity:1"
       d="m 99.579352,1054.9396 c 3.368518,-2.7369 7.576478,-4.2309 11.916708,-4.2309 h 4.72441 L 120,1035.5906 h -15.58339 z m 59.781348,4.6255 10.60519,-42.4208 c 8.10021,2.0251 13.02509,10.2332 11.00004,18.3334 l -5.66929,22.6772 c -0.54823,2.1929 -1.58124,4.235 -3.023,5.976 -4.09814,-2.052 -8.43582,-3.5857 -12.91294,-4.5658 z m -5.28922,-124.68851 7.24694,-31.4034 c 8.22719,1.06795 13.74231,6.93579 12.31837,13.10618 L 169.2758,935.477 c -0.18521,0.80257 -0.48518,1.58783 -0.89472,2.3422 -0.16699,-0.0655 -0.33875,-0.12383 -0.51446,-0.17485 -4.45194,-1.29276 -9.0772,-2.22074 -13.79514,-2.76776 z M 112.80436,918.4252 H 97.585945 l -2.342036,15.22323 c 3.702091,-2.50077 8.507881,-3.88465 13.490191,-3.88465 h 2.32586 z m -22.095699,45.35433 c 3e-6,6.26213 6.76861,11.33858 15.118109,11.33858 h 41.5748 c 0.96489,0 1.92755,-0.0693 2.87483,-0.20689 l -5.56585,-11.13169 z m 15.118109,143.62207 c -8.349496,0 -15.118103,-6.7686 -15.118109,-15.1181 h 56.634749 l 3.77953,15.1181 z" />
    <path
       inkscape:connector-curvature="0"
       id="path1445"
       style="fill:#550000;fill-opacity:1;stroke:none;stroke-width:0.37795275;stroke-linecap:round;stroke-miterlimit:4;stroke-dasharray:none;stroke-opacity:1"
       d="m 108.7341,933.54331 c -7.67906,0 -14.138261,4.31757 -15.018465,10.03891 l -0.19995,1.29967 h 53.132585 l 2.6166,-11.33858 z m 2.76196,120.94489 h 45.35433 l -3.77952,15.1181 H 95.912671 l 0.91667,-3.6667 c 1.682533,-6.7301 7.729519,-11.4514 14.666719,-11.4514 z m -20.787399,49.1338 c 0.830286,1.1071 1.779657,2.1196 2.831036,3.0193 1.960693,4.4874 0.818989,9.7264 -2.831036,12.9911 z M 181.41732,973.77922 c -1.84761,-1.57124 -3.23963,-3.41333 -4.08775,-5.40942 -3.41384,-1.08099 -7.30829,-1.08099 -10.72213,0 -1.36384,3.20981 -4.11807,5.98602 -7.82554,7.88798 -0.98167,8.80494 13.98107,13.67204 22.63542,7.36289 z m -90.708659,9.84145 c 2.678346,-1.95255 4.041587,-4.63794 3.73778,-7.36289 -1.377972,-0.70691 -2.633514,-1.53947 -3.73778,-2.47856 z m 90.708659,136.01173 c -9.07723,8.119 -22.82526,-1.8315 -17.94914,-12.9911 1.61401,-1.3812 2.98358,-3.0247 4.05112,-4.8613 3.8312,-2.5833 8.84674,-2.5833 12.67793,0 0.37043,0.6373 0.77782,1.2523 1.22009,1.842 z" />
    <path
       d="m 245.70357,973.58414 -6.74354,-13.48706 4.96054,-21.49567 c 4.38995,0.50399 8.69371,1.36491 12.83522,2.56752 0.8378,1.81305 1.0484,3.75592 0.61207,5.64667 l -4.36099,18.89764 c -0.7626,3.30458 -3.43663,6.18644 -7.3033,7.8709 z m 10.85291,122.36596 5.6693,-22.6771 c 0.41459,-1.6584 0.54492,-3.375 0.38546,-5.077 -4.23251,-2.2747 -8.76288,-3.9451 -13.45898,-4.9625 l -7.23342,28.9336 3.69232,14.7693 c 5.39189,-1.3694 9.5961,-5.5893 10.94532,-10.9863 z M 181.89848,960 l 1.7444,-11.33858 H 198.8613 L 197.1169,960 Z m 15.58183,128.5039 3.77953,-15.1181 h -15.58339 l -3.77953,15.1181 z m -8.40429,-175.15791 -0.19995,1.29968 h 55.45845 l 2.6166,-11.33858 h -42.85663 c -7.67906,0 -14.13826,4.31757 -15.01847,10.0389 z m 22.57752,103.34691 c -6.9372,0 -12.98419,4.7213 -14.66672,11.4514 l -0.91667,3.6667 h 57.04188 l 3.77952,-15.1181 z"
       style="fill:#550000;fill-opacity:1;stroke:none;stroke-width:0.37795275;stroke-linecap:round;stroke-miterlimit:4;stroke-dasharray:none;stroke-opacity:1"
       id="path1447"
       inkscape:connector-curvature="0" />
    <path
       d="m 199.44276,933.54331 c -7.67906,0 -14.13826,4.31757 -15.01846,10.03891 l -0.19995,1.29967 h 53.13259 l 2.61659,-11.33858 z m 2.76196,120.94489 h 45.35433 l -3.77952,15.1181 h -57.1582 l 0.91667,-3.6667 c 1.68254,-6.7301 7.72952,-11.4514 14.66672,-11.4514 z m -20.7874,49.1338 c 0.83029,1.1071 1.77966,2.1196 2.83104,3.0193 1.96069,4.4874 0.81899,9.7264 -2.83104,12.9911 z m 90.70866,-129.84278 c -1.8476,-1.57124 -3.23963,-3.41333 -4.08775,-5.40942 -3.41384,-1.08099 -7.30829,-1.08099 -10.72213,0 -1.36384,3.20981 -4.11807,5.98602 -7.82554,7.88798 -0.98167,8.80494 13.98107,13.67204 22.63542,7.36289 z m -90.70866,9.84145 c 2.67835,-1.95255 4.04159,-4.63794 3.73778,-7.36289 -1.37797,-0.70691 -2.63351,-1.53947 -3.73778,-2.47856 z m 90.70866,136.01173 c -9.07723,8.119 -22.82526,-1.8315 -17.94914,-12.9911 1.61401,-1.3812 2.98358,-3.0247 4.05112,-4.8613 3.8312,-2.5833 8.84674,-2.5833 12.67793,0 0.37043,0.6373 0.77782,1.2523 1.22009,1.842 z"
       style="fill:#550000;fill-opacity:1;stroke:none;stroke-width:0.37795275;stroke-linecap:round;stroke-miterlimit:4;stroke-dasharray:none;stroke-opacity:1"
       id="path1451"
       inkscape:connector-curvature="0" />
    <path
       inkscape:connector-curvature="0"
       id="path1457"
       style="fill:#550000;fill-opacity:1;stroke:none;stroke-width:0.37795275;stroke-linecap:round;stroke-miterlimit:4;stroke-dasharray:none;stroke-opacity:1"
       d="m 290.15142,933.54331 c -7.67906,0 -14.13826,4.31757 -15.01846,10.03891 l -0.19995,1.29967 h 53.13258 l 2.6166,-11.33858 z m 2.76196,120.94489 h 45.35433 l -3.77952,15.1181 h -57.1582 l 0.91667,-3.6667 c 1.68254,-6.7301 7.72952,-11.4514 14.66672,-11.4514 z m -20.7874,49.1338 c 0.83029,1.1071 1.77966,2.1196 2.83104,3.0193 1.96069,4.4874 0.81899,9.7264 -2.83104,12.9911 z m 90.70866,-129.84278 c -1.84761,-1.57124 -3.23963,-3.41333 -4.08775,-5.40942 -3.41384,-1.08099 -7.30829,-1.08099 -10.72213,0 -1.36384,3.20981 -4.11807,5.98602 -7.82554,7.88798 -0.98167,8.80494 13.98107,13.67204 22.63542,7.36289 z m -90.70866,9.84145 c 2.67835,-1.95255 4.04159,-4.63794 3.73778,-7.36289 -1.37797,-0.70691 -2.63351,-1.53947 -3.73778,-2.47856 z m 90.70866,136.01173 c -9.07723,8.119 -22.82526,-1.8315 -17.94914,-12.9911 1.61401,-1.3812 2.98358,-3.0247 4.05112,-4.8613 3.8312,-2.5833 8.84674,-2.5833 12.67793,0 0.37043,0.6373 0.77782,1.2523 1.22009,1.842 z" />
    <path
       id="path1459"
       style="fill:#550000;fill-opacity:1;stroke:none;stroke-width:0.37795275;stroke-linecap:round;stroke-miterlimit:4;stroke-dasharray:none;stroke-opacity:1"
       d="m 245.70357,973.58414 -6.74354,-13.48706 4.96054,-21.49567 c 4.38995,0.50399 8.69371,1.36491 12.83522,2.56752 0.8378,1.81305 1.0484,3.75592 0.61207,5.64667 l -4.36099,18.89764 c -0.7626,3.30458 -3.43663,6.18644 -7.3033,7.8709 z m 10.85291,122.36596 5.6693,-22.6771 c 0.41459,-1.6584 0.54492,-3.375 0.38546,-5.077 -4.23251,-2.2747 -8.76288,-3.9451 -13.45898,-4.9625 l -7.23342,28.9336 3.69232,14.7693 c 5.39189,-1.3694 9.5961,-5.5893 10.94532,-10.9863 z M 181.89848,960 l 1.7444,-11.33858 H 198.8613 L 197.1169,960 Z m 15.58183,128.5039 3.77953,-15.1181 h -15.58339 l -3.77953,15.1181 z m -8.40429,-175.15791 -0.19995,1.29968 h 55.45845 l 2.6166,-11.33858 h -42.85663 c -7.67906,0 -14.13826,4.31757 -15.01847,10.0389 z m 22.57752,103.34691 c -6.9372,0 -12.98419,4.7213 -14.66672,11.4514 l -0.91667,3.6667 h 57.04188 l 3.77952,-15.1181 z"
       inkscape:connector-curvature="0" />
    <path
       id="path1463"
       style="fill:#550000;fill-opacity:1;stroke:none;stroke-width:0.37795275;stroke-linecap:round;stroke-miterlimit:4;stroke-dasharray:none;stroke-opacity:1"
       d="m 199.44276,933.54331 c -7.67906,0 -14.13826,4.31757 -15.01846,10.03891 l -0.19995,1.29967 h 53.13259 l 2.61659,-11.33858 z m 2.76196,120.94489 h 45.35433 l -3.77952,15.1181 h -57.1582 l 0.91667,-3.6667 c 1.68254,-6.7301 7.72952,-11.4514 14.66672,-11.4514 z m -20.7874,49.1338 c 0.83029,1.1071 1.77966,2.1196 2.83104,3.0193 1.96069,4.4874 0.81899,9.7264 -2.83104,12.9911 z m 90.70866,-129.84278 c -1.8476,-1.57124 -3.23963,-3.41333 -4.08775,-5.40942 -3.41384,-1.08099 -7.30829,-1.08099 -10.72213,0 -1.36384,3.20981 -4.11807,5.98602 -7.82554,7.88798 -0.98167,8.80494 13.98107,13.67204 22.63542,7.36289 z m -90.70866,9.84145 c 2.67835,-1.95255 4.04159,-4.63794 3.73778,-7.36289 -1.37797,-0.70691 -2.63351,-1.53947 -3.73778,-2.47856 z m 90.70866,136.01173 c -9.07723,8.119 -22.82526,-1.8315 -17.94914,-12.9911 1.61401,-1.3812 2.98358,-3.0247 4.05112,-4.8613 3.8312,-2.5833 8.84674,-2.5833 12.67793,0 0.37043,0.6373 0.77782,1.2523 1.22009,1.842 z"
       inkscape:connector-curvature="0" />
    <path
       d="m 290.15142,933.54331 c -7.67906,0 -14.13826,4.31757 -15.01846,10.03891 l -0.19995,1.29967 h 53.13258 l 2.6166,-11.33858 z m 2.76196,120.94489 h 45.35433 l -3.77952,15.1181 h -57.1582 l 0.91667,-3.6667 c 1.68254,-6.7301 7.72952,-11.4514 14.66672,-11.4514 z m -20.7874,49.1338 c 0.83029,1.1071 1.77966,2.1196 2.83104,3.0193 1.96069,4.4874 0.81899,9.7264 -2.83104,12.9911 z m 90.70866,-129.84278 c -1.84761,-1.57124 -3.23963,-3.41333 -4.08775,-5.40942 -3.41384,-1.08099 -7.30829,-1.08099 -10.72213,0 -1.36384,3.20981 -4.11807,5.98602 -7.82554,7.88798 -0.98167,8.80494 13.98107,13.67204 22.63542,7.36289 z m -90.70866,9.84145 c 2.67835,-1.95255 4.04159,-4.63794 3.73778,-7.36289 -1.37797,-0.70691 -2.63351,-1.53947 -3.73778,-2.47856 z m 90.70866,136.01173 c -9.07723,8.119 -22.82526,-1.8315 -17.94914,-12.9911 1.61401,-1.3812 2.98358,-3.0247 4.05112,-4.8613 3.8312,-2.5833 8.84674,-2.5833 12.67793,0 0.37043,0.6373 0.77782,1.2523 1.22009,1.842 z"
       style="fill:#550000;fill-opacity:1;stroke:none;stroke-width:0.37795275;stroke-linecap:round;stroke-miterlimit:4;stroke-dasharray:none;stroke-opacity:1"
       id="path1469"
       inkscape:connector-curvature="0" />
    <path
       d="m 427.12089,973.58414 -6.74354,-13.48706 4.96054,-21.49567 c 4.38996,0.50399 8.69371,1.36491 12.83522,2.56752 0.8378,1.81305 1.0484,3.75592 0.61208,5.64667 l -4.361,18.89764 c -0.7626,3.30458 -3.43663,6.18644 -7.3033,7.8709 z m 10.85292,122.36596 5.66929,-22.6771 c 0.41459,-1.6584 0.54493,-3.375 0.38546,-5.077 -4.2325,-2.2747 -8.76288,-3.9451 -13.45898,-4.9625 l -7.23341,28.9336 3.69231,14.7693 c 5.39189,-1.3694 9.5961,-5.5893 10.94533,-10.9863 z M 363.31581,960 365.0602,948.66142 h 15.21842 L 378.53422,960 Z m 15.58183,128.5039 3.77953,-15.1181 h -15.5834 l -3.77952,15.1181 z m -8.40429,-175.15791 -0.19996,1.29968 h 55.45846 l 2.61659,-11.33858 h -42.85663 c -7.67906,0 -14.13825,4.31757 -15.01846,10.0389 z m 22.57752,103.34691 c -6.93721,0 -12.98419,4.7213 -14.66673,11.4514 l -0.91667,3.6667 h 57.04188 l 3.77953,-15.1181 z"
       style="fill:#550000;fill-opacity:1;stroke:none;stroke-width:0.37795275;stroke-linecap:round;stroke-miterlimit:4;stroke-dasharray:none;stroke-opacity:1"
       id="path1471"
       inkscape:connector-curvature="0" />
    <path
       d="m 371.70534,1054.9396 c 3.36852,-2.7369 7.57647,-4.2309 11.91671,-4.2309 h 4.72441 l 3.77952,-15.1181 h -15.58339 z m 59.78134,4.6255 10.6052,-42.4208 c 8.1002,2.0251 13.02509,10.2332 11.00004,18.3334 l -5.66929,22.6772 c -0.54824,2.1929 -1.58125,4.235 -3.02301,5.976 -4.09814,-2.052 -8.43581,-3.5857 -12.91294,-4.5658 z m -5.28921,-124.68851 7.24693,-31.4034 c 8.22719,1.06795 13.74232,6.93579 12.31838,13.10618 l -4.361,18.89763 c -0.1852,0.80257 -0.48517,1.58783 -0.89472,2.3422 -0.16699,-0.0655 -0.33874,-0.12383 -0.51445,-0.17485 -4.45195,-1.29276 -9.07721,-2.22074 -13.79514,-2.76776 z M 384.93034,918.4252 h -15.21841 l -2.34204,15.22323 c 3.70209,-2.50077 8.50788,-3.88465 13.49019,-3.88465 h 2.32587 z m -22.09569,45.35433 c 0,6.26213 6.76861,11.33858 15.11811,11.33858 h 41.5748 c 0.96488,0 1.92754,-0.0693 2.87482,-0.20689 l -5.56585,-11.13169 z m 15.11811,143.62207 c -8.3495,0 -15.11811,-6.7686 -15.11811,-15.1181 h 56.63475 l 3.77953,15.1181 z"
       style="fill:#550000;fill-opacity:1;stroke:none;stroke-width:0.37795275;stroke-linecap:round;stroke-miterlimit:4;stroke-dasharray:none;stroke-opacity:1"
       id="path1473"
       inkscape:connector-curvature="0" />
    <path
       inkscape:connector-curvature="0"
       id="path1479"
       style="fill:#550000;fill-opacity:1;stroke:none;stroke-width:0.37795275;stroke-linecap:round;stroke-miterlimit:4;stroke-dasharray:none;stroke-opacity:1"
       d="m 462.414,1054.9396 c 3.36852,-2.7369 7.57648,-4.2309 11.91671,-4.2309 h 4.72441 l 3.77953,-15.1181 h -15.58339 z m 59.78135,4.6255 10.60519,-42.4208 c 8.10021,2.0251 13.02509,10.2332 11.00004,18.3334 l -5.66929,22.6772 c -0.54823,2.1929 -1.58124,4.235 -3.023,5.976 -4.09814,-2.052 -8.43582,-3.5857 -12.91294,-4.5658 z m -5.28922,-124.68851 7.24694,-31.4034 c 8.22719,1.06795 13.74231,6.93579 12.31837,13.10618 l -4.36099,18.89763 c -0.18521,0.80257 -0.48518,1.58783 -0.89472,2.3422 -0.16699,-0.0655 -0.33875,-0.12383 -0.51446,-0.17485 -4.45194,-1.29276 -9.0772,-2.22074 -13.79514,-2.76776 z M 475.63901,918.4252 h -15.21842 l -2.34204,15.22323 c 3.7021,-2.50077 8.50789,-3.88465 13.4902,-3.88465 h 2.32586 z m -22.0957,45.35433 c 0,6.26213 6.76861,11.33858 15.11811,11.33858 h 41.5748 c 0.96489,0 1.92755,-0.0693 2.87483,-0.20689 l -5.56585,-11.13169 z m 15.11811,143.62207 c -8.3495,0 -15.11811,-6.7686 -15.11811,-15.1181 h 56.63475 l 3.77953,15.1181 z" />
    <path
       id="path1483"
       style="fill:#550000;fill-opacity:1;stroke:none;stroke-width:0.37795275;stroke-linecap:round;stroke-miterlimit:4;stroke-dasharray:none;stroke-opacity:1"
       d="m 427.12089,973.58414 -6.74354,-13.48706 4.96054,-21.49567 c 4.38996,0.50399 8.69371,1.36491 12.83522,2.56752 0.8378,1.81305 1.0484,3.75592 0.61208,5.64667 l -4.361,18.89764 c -0.7626,3.30458 -3.43663,6.18644 -7.3033,7.8709 z m 10.85292,122.36596 5.66929,-22.6771 c 0.41459,-1.6584 0.54493,-3.375 0.38546,-5.077 -4.2325,-2.2747 -8.76288,-3.9451 -13.45898,-4.9625 l -7.23341,28.9336 3.69231,14.7693 c 5.39189,-1.3694 9.5961,-5.5893 10.94533,-10.9863 z M 363.31581,960 365.0602,948.66142 h 15.21842 L 378.53422,960 Z m 15.58183,128.5039 3.77953,-15.1181 h -15.5834 l -3.77952,15.1181 z m -8.40429,-175.15791 -0.19996,1.29968 h 55.45846 l 2.61659,-11.33858 h -42.85663 c -7.67906,0 -14.13825,4.31757 -15.01846,10.0389 z m 22.57752,103.34691 c -6.93721,0 -12.98419,4.7213 -14.66673,11.4514 l -0.91667,3.6667 h 57.04188 l 3.77953,-15.1181 z"
       inkscape:connector-curvature="0" />
    <path
       id="path1485"
       style="fill:#550000;fill-opacity:1;stroke:none;stroke-width:0.37795275;stroke-linecap:round;stroke-miterlimit:4;stroke-dasharray:none;stroke-opacity:1"
       d="m 371.70534,1054.9396 c 3.36852,-2.7369 7.57647,-4.2309 11.91671,-4.2309 h 4.72441 l 3.77952,-15.1181 h -15.58339 z m 59.78134,4.6255 10.6052,-42.4208 c 8.1002,2.0251 13.02509,10.2332 11.00004,18.3334 l -5.66929,22.6772 c -0.54824,2.1929 -1.58125,4.235 -3.02301,5.976 -4.09814,-2.052 -8.43581,-3.5857 -12.91294,-4.5658 z m -5.28921,-124.68851 7.24693,-31.4034 c 8.22719,1.06795 13.74232,6.93579 12.31838,13.10618 l -4.361,18.89763 c -0.1852,0.80257 -0.48517,1.58783 -0.89472,2.3422 -0.16699,-0.0655 -0.33874,-0.12383 -0.51445,-0.17485 -4.45195,-1.29276 -9.07721,-2.22074 -13.79514,-2.76776 z M 384.93034,918.4252 h -15.21841 l -2.34204,15.22323 c 3.70209,-2.50077 8.50788,-3.88465 13.49019,-3.88465 h 2.32587 z m -22.09569,45.35433 c 0,6.26213 6.76861,11.33858 15.11811,11.33858 h 41.5748 c 0.96488,0 1.92754,-0.0693 2.87482,-0.20689 l -5.56585,-11.13169 z m 15.11811,143.62207 c -8.3495,0 -15.11811,-6.7686 -15.11811,-15.1181 h 56.63475 l 3.77953,15.1181 z"
       inkscape:connector-curvature="0" />
    <path
       d="m 462.414,1054.9396 c 3.36852,-2.7369 7.57648,-4.2309 11.91671,-4.2309 h 4.72441 l 3.77953,-15.1181 h -15.58339 z m 59.78135,4.6255 10.60519,-42.4208 c 8.10021,2.0251 13.02509,10.2332 11.00004,18.3334 l -5.66929,22.6772 c -0.54823,2.1929 -1.58124,4.235 -3.023,5.976 -4.09814,-2.052 -8.43582,-3.5857 -12.91294,-4.5658 z m -5.28922,-124.68851 7.24694,-31.4034 c 8.22719,1.06795 13.74231,6.93579 12.31837,13.10618 l -4.36099,18.89763 c -0.18521,0.80257 -0.48518,1.58783 -0.89472,2.3422 -0.16699,-0.0655 -0.33875,-0.12383 -0.51446,-0.17485 -4.45194,-1.29276 -9.0772,-2.22074 -13.79514,-2.76776 z M 475.63901,918.4252 h -15.21842 l -2.34204,15.22323 c 3.7021,-2.50077 8.50789,-3.88465 13.4902,-3.88465 h 2.32586 z m -22.0957,45.35433 c 0,6.26213 6.76861,11.33858 15.11811,11.33858 h 41.5748 c 0.96489,0 1.92755,-0.0693 2.87483,-0.20689 l -5.56585,-11.13169 z m 15.11811,143.62207 c -8.3495,0 -15.11811,-6.7686 -15.11811,-15.1181 h 56.63475 l 3.77953,15.1181 z"
       style="fill:#550000;fill-opacity:1;stroke:none;stroke-width:0.37795275;stroke-linecap:round;stroke-miterlimit:4;stroke-dasharray:none;stroke-opacity:1"
       id="path1491"
       inkscape:connector-curvature="0" />
    <path
       inkscape:connector-curvature="0"
       id="path1495"
       style="fill:#550000;fill-opacity:1;stroke:none;stroke-width:0.37795275;stroke-linecap:round;stroke-miterlimit:4;stroke-dasharray:none;stroke-opacity:1"
       d="m 608.53822,973.58414 -6.74354,-13.48706 4.96054,-21.49567 c 4.38995,0.50399 8.69371,1.36491 12.83522,2.56752 0.8378,1.81305 1.0484,3.75592 0.61207,5.64667 l -4.36099,18.89764 c -0.7626,3.30458 -3.43663,6.18644 -7.3033,7.8709 z m 10.85291,122.36596 5.6693,-22.6771 c 0.41459,-1.6584 0.54492,-3.375 0.38546,-5.077 -4.23251,-2.2747 -8.76288,-3.9451 -13.45898,-4.9625 l -7.23342,28.9336 3.69232,14.7693 c 5.39189,-1.3694 9.5961,-5.5893 10.94532,-10.9863 z M 544.73313,960 l 1.7444,-11.33858 h 15.21842 L 559.95155,960 Z m 15.58183,128.5039 3.77953,-15.1181 H 548.5111 l -3.77953,15.1181 z m -8.40429,-175.15791 -0.19995,1.29968 h 55.45845 l 2.6166,-11.33858 h -42.85663 c -7.67906,0 -14.13826,4.31757 -15.01847,10.0389 z m 22.57752,103.34691 c -6.9372,0 -12.98419,4.7213 -14.66672,11.4514 l -0.91667,3.6667 h 57.04188 l 3.77952,-15.1181 z" />
    <path
       inkscape:connector-curvature="0"
       d="m 608.53822,973.58414 -6.74354,-13.48706 4.96054,-21.49567 c 4.38995,0.50399 8.69371,1.36491 12.83522,2.56752 0.8378,1.81305 1.0484,3.75592 0.61207,5.64667 l -4.36099,18.89764 c -0.7626,3.30458 -3.43663,6.18644 -7.3033,7.8709 z m 10.85291,122.36596 5.6693,-22.6771 c 0.41459,-1.6584 0.54492,-3.375 0.38546,-5.077 -4.23251,-2.2747 -8.76288,-3.9451 -13.45898,-4.9625 l -7.23342,28.9336 3.69232,14.7693 c 5.39189,-1.3694 9.5961,-5.5893 10.94532,-10.9863 z M 544.73313,960 l 1.7444,-11.33858 h 15.21842 L 559.95155,960 Z m 15.58183,128.5039 3.77953,-15.1181 H 548.5111 l -3.77953,15.1181 z m -8.40429,-175.15791 -0.19995,1.29968 h 55.45845 l 2.6166,-11.33858 h -42.85663 c -7.67906,0 -14.13826,4.31757 -15.01847,10.0389 z m 22.57752,103.34691 c -6.9372,0 -12.98419,4.7213 -14.66672,11.4514 l -0.91667,3.6667 h 57.04188 l 3.77952,-15.1181 z"
       style="fill:#550000;fill-opacity:1;stroke:none;stroke-width:0.37795275;stroke-linecap:round;stroke-miterlimit:4;stroke-dasharray:none;stroke-opacity:1"
       id="path1507" />
  </g>
</svg>
